<svg id="Layer_3" data-name="Layer 3" xmlns="http://www.w3.org/2000/svg" viewBox="0 0 290 317"><defs><style>.cls-1{fill:#7fa2b3;}.cls-2{fill:#e8ded2;}.cls-3,.cls-4{fill:none;stroke:#00334a;stroke-miterlimit:10;stroke-width:11px;}.cls-4{stroke-linecap:square;}.cls-5{fill:#ec5502;}</style></defs><path class="cls-1" d="M264.9935,201.58c.7892,56.9438-70.943,103.3558-89.2746,91.58-11.8588-7.6182,7.0543-34.1752-9.3359-65.2429-16.2276-30.7593-46.7061-27.3579-52.5145-53.2717-4.2631-19.0195,7.8427-40.0932,21.5893-51.476,15.67-12.9756,33.268-13.1891,40.2611-13.1683,35.2316.1047,58.4682,27.8053,64.7679,35.315C247.444,153.61,264.6123,174.0761,264.9935,201.58Z"/><ellipse class="cls-2" cx="79.7505" cy="96.205" rx="54.3889" ry="54.357" transform="translate(-6.8507 6.1174) rotate(-4.2121)"/><circle class="cls-3" cx="141.5" cy="152.5" r="99"/><path class="cls-4" d="M143.75,126.9255l-50,50Z"/><path class="cls-4" d="M136.8032,126.2766,189.25,178.7234Z"/><ellipse class="cls-5" cx="47.7088" cy="179.9111" rx="23.0634" ry="23.28" transform="matrix(0.9973, -0.0734, 0.0734, 0.9973, -13.0853, 3.9901)"/></svg>
