<svg id="Layer_3" data-name="Layer 3" xmlns="http://www.w3.org/2000/svg" viewBox="0 0 340 340"><defs><style>.cls-1{fill:#7fa2b3;}</style></defs><path class="cls-1" d="M159,44.635V78.9355H133.6318a8.5844,8.5844,0,0,0-4.7236,2.0379c-1.3828,1.26-2.4375,3.267-2.7793,11.1821a97.56,97.56,0,0,0,.1787,11.4336q16.3462.1785,32.6924.3573l-5.002,37.5161H126.8428v97.5423H87.541V141.82H67.5322v-38.588l18.1983.65c.2617-3.53.6689-9.2533,1.0957-16.371.7343-12.2711.6845-14.6652,2.209-18.7327a36.8114,36.8114,0,0,1,9.9384-14.1386,41.7645,41.7645,0,0,1,14.4727-8.8442c5.4385-1.893,9.0976-1.793,24.4736-1.5175C141.1465,44.3356,148.4648,44.4652,159,44.635Z"/></svg>
