<svg id="Layer_3" data-name="Layer 3" xmlns="http://www.w3.org/2000/svg" viewBox="0 0 340 340"><defs><style>.cls-1{fill:#c8e4e8;}.cls-2{fill:#7fa2b3;}.cls-3{fill:#ec5502;}.cls-4{fill:#e8ded2;}</style></defs><path class="cls-1" d="M55.9525,189.8183C43.4058,183.1138,23.3,167.42,23.7548,155.3768c.3381-8.944,11.7538-8.9289,30.75-18.5269,28.7486-14.5255,24.9869-29.0748,46.0814-34.4642,14.9791-3.827,45.5044-11.6257,71.7458,12.5282,19.1066,17.5866,34.375,50.67,27.4336,64.7108-5.9762,12.0889-26.8409,6.8757-31.9367,5.6023-26.2364-6.5565-34.7958-32.51-48.1552-29.972-14.1844,2.6943-8.64,31.6542-27.2983,40.6158C79.1583,202.219,63.5189,193.8614,55.9525,189.8183Z"/><path class="cls-2" d="M159,44.635V78.9355H133.6318a8.5844,8.5844,0,0,0-4.7236,2.0379c-1.3828,1.26-2.4375,3.267-2.7793,11.1821a97.56,97.56,0,0,0,.1787,11.4336q16.3462.1785,32.6924.3573l-5.002,37.5161H126.8428v97.5423H87.541V141.82H67.5322v-38.588l18.1983.65c.2617-3.53.6689-9.2533,1.0957-16.371.7343-12.2711.6845-14.6652,2.209-18.7327a36.8114,36.8114,0,0,1,9.9384-14.1386,41.7645,41.7645,0,0,1,14.4727-8.8442c5.4385-1.893,9.0976-1.793,24.4736-1.5175C141.1465,44.3356,148.4648,44.4652,159,44.635Z"/><circle class="cls-3" cx="92.1866" cy="60.1136" r="20.1549"/><path class="cls-4" d="M166.4343,232.6931c5.4168,8.9721,11.7582,25.7089,5.7571,31.2387-4.457,4.1067-12.2607-1.1568-29.7926-5.3293-26.5328-6.3147-30.8331,2.351-47.8124-4.7933-12.0569-5.0732-36.627-15.4117-43.1695-39.0051-4.7636-17.1786.4206-39.9751,11.8038-43.47,9.8006-3.01,21.6132,9.0819,24.4981,12.0351,14.8533,15.2049,8.4476,31.5142,18.7871,36.4561,10.978,5.247,20.8676-11.1068,37.8674-6.7868C156.4157,216.0985,163.1675,227.2824,166.4343,232.6931Z"/></svg>
