<svg id="Layer_3" data-name="Layer 3" xmlns="http://www.w3.org/2000/svg" viewBox="0 0 340 340"><defs><style>.cls-1{fill:#c8e4e8;}.cls-2{fill:none;stroke:#7fa2b3;stroke-miterlimit:10;stroke-width:11px;}.cls-3{fill:#ec5502;}.cls-4{fill:#e8ded2;}</style></defs><path class="cls-1" d="M249.8418,222.1664c9.1514,13.8343,20.1992,39.7257,10.8857,48.4615-6.9179,6.4878-19.6943-1.5244-47.9892-7.6218a139.2419,139.2419,0,0,0-27.4727-3.4092c-16.4619-.2649-24.6494.6768-34.2285,1.0076-9.1.3142-46.834,1.6179-69.0371-21.6045-12.9189-13.512-15.4258-29.937-17.2793-42.0819-3.4062-22.3147-2.15-61.9713,16.58-67.881,15.5322-4.9007,35.0918,13.6422,39.8681,18.1712,24.5948,23.3177,15.209,48.83,32.0284,56.2851,17.8584,7.9155,32.82-17.7439,60.2705-11.4051C232.9141,196.5786,244.3223,213.8234,249.8418,222.1664Z"/><rect class="cls-2" x="86.1622" y="64" width="171.2633" height="171.2633" rx="23.4468"/><circle class="cls-2" cx="171.6202" cy="150.5487" r="49.4305"/><circle class="cls-3" cx="226.3667" cy="92.1363" r="8.8351"/><path class="cls-4" d="M82.5977,126.8c-30.0391,1.88-59.2666-18.4643-63.03-34.7167C16.8516,80.3562,31.9238,68.6913,48.2305,69.7914c14.7431.9947,25.2324,12.0685,32.3222,7.3624,4.875-3.236,5.1573-8.2666,9.3838-18.6C90.4688,57.2528,99.1445,36.5446,114,25c21.7422-16.8959,51.0205-9.7327,52.5225-9.3416,2.58.6719,32.9511,11.2525,39.2158,32.9235,4.626,16.0017-11.124,27.6721-23.6231,31.4721-19.0888,5.8035-29.5781-7.0614-44.1425-.5686-14.8291,6.6105-9.1456,25.2487-26.836,38.3022C100.4365,125.683,88.6816,126.4187,82.5977,126.8Z"/></svg>
