<svg id="Layer_3" data-name="Layer 3" xmlns="http://www.w3.org/2000/svg" viewBox="0 0 340 340"><defs><style>.cls-1{fill:#7fa2b3;}</style></defs><rect class="cls-1" x="83.6046" y="123.6072" width="37.1461" height="115.1529"/><path class="cls-1" d="M143.0384,123.6072h36.6154V141.65a42.6225,42.6225,0,0,1,15.3891-15.92,39.8358,39.8358,0,0,1,19.1037-5.8372,48.2856,48.2856,0,0,1,28.1249,10.0825c14.706,12.0089,16.4975,29.3512,16.7884,32.9027l.7234,75.8823H221.5759q-.2584-34.3611-.5168-68.7224c-.15-1.3188-1.3375-10.4115-9.3-15.387a19.7405,19.7405,0,0,0-10.3478-2.9186,21.7387,21.7387,0,0,0-11.1439,3.7146,22.4984,22.4984,0,0,0-9.0212,13.7971V238.76H143.0384Z"/><ellipse class="cls-1" cx="101.5182" cy="88.8437" rx="20.9645" ry="18.8437"/></svg>
