<svg id="Layer_3" data-name="Layer 3" xmlns="http://www.w3.org/2000/svg" viewBox="0 0 340 340"><defs><style>.cls-1{fill:#c8e4e8;}.cls-2{fill:#7fa2b3;}.cls-3{fill:#ec5502;}.cls-4{fill:#e8ded2;}</style></defs><path class="cls-1" d="M173.6161,70.4835c14.1174,1.7519,38.5179,9.1794,42.418,20.5824,2.8962,8.4687-7.7636,12.554-22.0461,28.3332-21.6151,23.88-12.88,36.1082-30.6319,48.7131-12.6058,8.9506-38.2946,27.1906-71.4592,14.0709-24.1476-9.5526-50.2776-34.9465-48.8412-50.5435,1.2366-13.4286,22.5816-16.0554,27.7949-16.6968,26.8409-3.3022,44.1489,17.8463,55.706,10.6806,12.2708-7.6082-3.3026-32.6457,10.8927-47.7094C147.5051,67.243,165.1025,69.4271,173.6161,70.4835Z"/><rect class="cls-2" x="83.6046" y="123.6072" width="37.1461" height="115.1529"/><path class="cls-2" d="M143.0384,123.6072h36.6154V141.65a42.6225,42.6225,0,0,1,15.3891-15.92,39.8358,39.8358,0,0,1,19.1037-5.8372,48.2856,48.2856,0,0,1,28.1249,10.0825c14.706,12.0089,16.4975,29.3512,16.7884,32.9027l.7234,75.8823H221.5759q-.2584-34.3611-.5168-68.7224c-.15-1.3188-1.3375-10.4115-9.3-15.387a19.7405,19.7405,0,0,0-10.3478-2.9186,21.7387,21.7387,0,0,0-11.1439,3.7146,22.4984,22.4984,0,0,0-9.0212,13.7971V238.76H143.0384Z"/><ellipse class="cls-3" cx="101.5182" cy="88.8437" rx="20.9645" ry="18.8437"/><path class="cls-4" d="M125.2961,268.3193c-12.4834-2.86-31.08-10.5059-27.1334-18.003,2.9308-5.568,16.0195-6.73,40.5357-14.6182,14.0108-4.5078,13.0306-5.8581,23.6427-9.1829a153.0057,153.0057,0,0,1,40.6359-7.4464c19.9642-.7424,19.0812,3.861,33.7657,2.4975,24.7626-2.2991,31.6193-15.7933,43.33-11.5333,12.83,4.6669,23.3434,29.1343,13.0619,37.2186-10.292,8.0924-32.7393,7.0087-38.2218,6.744-28.2259-1.3633-30.6627-16.5411-46.7058-13.6-17.0346,3.1229-18.9116,20.47-42.8584,27.93C148.3843,273.6094,132.8243,270.044,125.2961,268.3193Z"/></svg>
