<svg xmlns="http://www.w3.org/2000/svg" viewBox="0 0 500 500"><defs><style>.cls-1{fill:#7fa2b3;}.cls-2{fill:#e8ded2;}.cls-3,.cls-4,.cls-5{fill:none;stroke:#00334a;stroke-miterlimit:10;stroke-width:11px;}.cls-3{stroke-linecap:square;}.cls-4{stroke-linecap:round;}</style></defs><g id="Layer_3" data-name="Layer 3"><ellipse class="cls-1" cx="271.702" cy="318.7248" rx="47.0149" ry="46.9921" transform="translate(-22.676 20.817) rotate(-4.2121)"/><path class="cls-2" d="M185.1755,159.15c9.5955-38.8531,67.8854-57.2924,78.57-45.9366,6.9119,7.3461-11.0083,21.942-5.1144,46.0568,5.8358,23.8752,27.6951,27.1336,27.1283,45.8107-.416,13.7083-12.6124,25.821-24.2261,31.0463-13.2392,5.9564-25.5485,2.8852-30.4213,1.5929-24.5492-6.51-35.8174-29.5874-38.8723-35.8437C188.8665,194.9672,180.5411,177.9166,185.1755,159.15Z"/><path class="cls-3" d="M251.5949,425.4786l-43.3023-40.1738Z"/><path class="cls-3" d="M245.5786,426,291,383.86Z"/><line class="cls-4" x1="251.5" y1="184.5" x2="251.5" y2="200.5"/></g><g id="Layer_1" data-name="Layer 1"><rect class="cls-5" x="195.5" y="147.5" width="109" height="202" rx="54.4999"/></g></svg>
