<svg id="Layer_1" data-name="Layer 1" xmlns="http://www.w3.org/2000/svg" viewBox="0 0 1475 1426"><defs><style>.cls-1,.cls-2,.cls-3,.cls-4{fill:none;stroke:#80a2b3;stroke-miterlimit:10;}.cls-1{stroke-width:1.15px;}.cls-2{stroke-width:1.11px;}.cls-3{stroke-width:1.12px;}.cls-4{stroke-width:1.2px;}</style></defs><path class="cls-1" d="M373,1326.38c31.54,10.9,46.71,4.52,101.86,3.4,88.12-1.8,88.43,13.68,129.78,3.39,48-11.94,79-40.6,101.1-61.11,23.3-21.58,59.6-55.2,50.93-76.18-4.78-11.56-20.85-13.55-101.86-18.89-120.11-7.91-129.71-3.75-142.6,0-46.52,13.51-43,18.4-89.08,29.76-15.68,3.87-40.28,1.12-72.83-1.46-55.25-4.38-74.56,22.86-75.76,32.82-2.9,24,24.68,39,33.95,47.53C320.28,1296.45,341.36,1315.44,373,1326.38Z"/><path class="cls-2" d="M223.39,645a120.08,120.08,0,0,0,23.92,15.59,131.86,131.86,0,0,0,14.08,5.84c43.82,15.07,86.66,2.89,96.84,0,10.61-3,23.73-7.92,94.68-60.8,56.35-42,60.75-48.34,62.41-57,6.52-34-34.94-74.33-77.47-91.19-51.4-20.38-72.05,6.32-127-17.1-34.65-14.78-44.41-33.08-77.47-34.2a59.23,59.23,0,0,0-8.26.09c-38.74,3.6-64.05,51.74-72.19,81.13-13.67,49.32,8.71,90.23,14.45,100C180.76,609.94,198.77,624.74,223.39,645Z"/><path class="cls-3" d="M852.72,856.79c108.25,8.1,100,22.49,178.13,22.91,106.1.56,141.65-25.86,152.28-34.36,10.24-8.18,63-50.34,57.46-87.79-7.37-49.84-117.58-88.6-206.86-49.63-59.53,26-58.47,64.15-112.05,72.53-59.69,9.34-94.43-32.78-137.92,0-17,12.85-35.34,37.14-31.6,53.44C756.8,854.15,793.25,852.34,852.72,856.79Z"/><path class="cls-4" d="M1219.6,229.6c-142-8-137.47-6.94-150.35-8.72-88.75-12.26-95.39-33.64-182.35-43.62-5.62-.64-121.53-13.45-134.36,8.72-11.24,19.41,62.31,55.54,73.58,61.07,22.17,10.89,66.62,30.1,217.53,52.34,134.87,19.87,167.95,14.63,185.55,10.9,63.74-13.5,120.37-48.78,112-65.42C1337,236.6,1317.91,235.14,1219.6,229.6Z"/></svg>
